<?xml version="1.0"?><svg version="1.2" baseProfile="tiny-ps" viewBox="0 0 189 189" xmlns="http://www.w3.org/2000/svg" xmlns:xlink="http://www.w3.org/1999/xlink"><title>bybaro.it</title><g><g fill="#fdfdfd" transform="matrix(.1 0 0 -.1 0 189)"><path d="m668 1740-47-8-62-34-63-33-67-68c-37-37-81-88-98-113l-30-46-7-43-6-43 16-55 16-56 49-53 48-53-29-39-28-39v-57h-68l-11-14-12-15-1-41v-42l11-11 11-11 86-4 86-5-5-44-5-44-15-17-16-17 22-21c33-31 58-42 115-50 28-3 59-12 68-18l16-12 1-25c0-13-2-34-7-46l-7-22 31-28c34-29 60-72 60-96v-15l-22-6c-66-16-394-259-434-321l-16-25 6-25 6-25h740c407 0 740 3 740 6 0 4-20 37-45 74l-46 68-56 52c-71 65-302 207-363 223l-23 6 6 61c14 126 49 224 112 313l34 48 6 47c3 26 15 83 27 127 11 44 28 112 36 150l15 70-11 88-11 89-30 63-29 64-41 43-40 44-53 29-53 29-127 7-127 7-56 21-56 21-47-1c-26-1-68-5-94-9z"/></g><g fill="#dcdcdc" transform="matrix(.1 0 0 -.1 0 189)"><path d="m668 1740-47-8-62-34-63-33-67-68c-37-37-81-88-98-113l-30-46-7-43-6-43 16-55 16-56 49-53 48-53-29-39-28-39v-57h-68l-11-14-12-15-1-41v-42l11-11 11-11 86-4 86-5-5-44-5-44-15-17-16-17 22-21c33-31 58-42 115-50 28-3 59-12 68-18l16-12 1-25c0-13-2-34-7-46l-7-22 31-28c34-29 60-72 60-96v-15l-22-6c-66-16-394-259-434-321l-16-25 6-25 6-25h740c407 0 740 3 740 6 0 4-20 37-45 74l-46 68-56 52c-71 65-302 207-363 223l-23 6 6 61c14 126 49 224 112 313l34 48 6 47c3 26 15 83 27 127 11 44 28 112 36 150l15 70-11 88-11 89-30 63-29 64-42 45-43 46-61 30-61 30-109 1-110 1-63 24-63 24-48-1c-26-1-68-5-94-9zm-125-629c9-7 22-31 27-52l11-39-12-21-11-21-26 7c-15 3-55 9-89 12l-63 5v59l31 32 31 32h85l16-14zm322-3 25-11v-13c0-7 4-14 10-16 5-1 12-18 16-35l7-33h-64l2 13c1 6 1 18 0 25l-1 13-22-3-23-3 1-22 1-23H690v18c0 10 3 22 8 26 4 4 7 13 7 19s15 22 34 34l34 23h33c18 0 45-5 59-12zM360 970c0-5 14-25 30-43 33-38 36-47 17-47h-13l-34 48-33 47-4-12-5-13 21-29c28-38 27-41-13-41h-34l-6 16c-8 21-8 69 1 77 3 4 21 7 40 7h33v-10zm118 4 22-6v-48h-66l-22 30-23 30h33c18 0 43-3 56-6zm410-21-27-27-21 19-20 18-7-7-7-6 12-12c7-7 12-16 12-20 0-5-13 6-30 24l-29 33-1-14c0-8 8-23 18-34l17-20-34 7c-38 7-71 32-71 53v13h215l-27-27zm69-279 6-16-22-21-21-21v14c0 8-3 25-6 38l-6 22h43l6-16zm-67-6c0-7 3-23 6-34l6-21-31-11-30-11-7 36-7 35 14 9c8 5 22 9 32 9h17v-12zm-78-43c5-42 3-45-33-45h-27l-7 30-6 30 6 10 6 10h57l4-35zm-93-6c14-42 15-41-15-37l-26 3-13 33-14 32h57l11-31zm-219 426-12-15 6-15c7-19 30-19 46 0l12 15-12 15c-16 19-24 19-40 0z"/></g><g fill="#a7a7a7" transform="matrix(.1 0 0 -.1 0 189)"><path d="m668 1740-47-8-62-34-63-33-67-68c-37-37-81-88-98-113l-30-46-7-43-6-43 16-55 16-56 49-53 48-53-29-39-28-39v-57h-68l-11-14-12-15-1-41v-42l11-11 11-11 86-4 86-5-5-44-5-44-15-17-16-17 22-21c33-31 58-42 115-50 28-3 59-12 68-18l16-12 1-25c0-13-2-34-7-46l-7-22 31-28c34-29 60-72 60-96v-15l-22-6c-66-16-394-259-434-321l-16-25 6-25 6-25h740c407 0 740 3 740 6 0 4-20 37-45 74l-46 68-56 52c-70 64-302 207-362 223l-21 5v31c0 80 67 311 91 311 4 0 20 20 34 44l25 43 9 69c5 38 21 106 35 152 14 45 28 108 32 140l6 58-11 75-12 74-29 62-28 62-42 45-42 45-61 31-60 30H935l-60 25-60 25-50-1c-27-1-71-5-97-9zm-68-301 45-8 67 6 67 6 20-34 21-34v-41c0-23-5-55-11-73l-11-31h-28c-16 0-40-4-54-10l-26-10v-50h20c12 0 27-6 34-12l13-13-28-17c-15-9-35-28-44-42l-16-24-2-36-2-36h-70v98l-23 32-24 32 28-4 29-3 3 18 4 18-13 15-13 16-66-4-66-3-2 31c-3 47 15 121 44 182l26 53 17-7c9-4 36-10 61-15zm385-171c-4-13-11-27-16-32-5-6-9-14-9-18 0-12 38-10 45 2l6 10 10-5 9-6v-101l40-40 40-40v-70l-13 5c-7 2-45 11-85 18l-72 13v49l-20 32-20 33-28 10c-15 6-40 12-56 14l-29 3 31 12 32 11 37-19 37-19 8 13c13 20 9 35-12 50l-20 14 22 41 23 42h46l-6-22zm-448-153 21-14 12-36 12-36-7-26-6-25-37 6c-20 4-65 9-100 12l-63 6 7 32c6 31 16 47 44 77l15 16 40 1 40 1 22-14zm334-5c23-13 49-61 49-92v-24l-35 4-36 4 10 12 10 12-8 13-8 13-19-4-19-3v-40l-60-6-60-6-8 7-8 7 14 35 15 35 27 21 28 22h44c24 0 53-5 64-10zm459-140 20-20v-34c0-44-15-85-42-113l-21-23h-67l-12 20c-15 23-28 26-28 6 0-8 11-23 25-34l25-20-14-94c-8-51-18-124-21-163l-7-70 31-18c37-22 38-27 8-55-33-31-102-58-196-78l-84-16-57 5-56 5-45 22c-78 39-98 71-64 100l16 13-7 31-6 31-39 40c-21 23-39 46-39 52v11l37-10 36-10 46 7c25 3 69 13 98 21l52 14 31 26 31 27-3 31-3 31-34 3-33 3-111-22-110-21-76 6c-78 7-141 24-141 38 0 10 8 11 95 14 39 1 81 3 95 5 14 1 60-2 103-6l77-8v11c0 15-27 29-72 37l-38 7 11 19 10 20-6 18-6 19 100 4 99 4 16 13 16 13v86l43-9c23-5 53-12 66-15l23-5-6-33-7-34 16-16c33-32 64-13 88 54l17 45 27 17c16 10 38 18 51 18h22l20-20zm-940-38c44-58 45-62 26-62h-16l-32 45c-18 25-35 45-40 45-13 0-9-12 18-47l25-33-13-5c-7-3-26-1-43 3l-30 8-3 33c-2 18-1 39 2 47l5 14h33l33-1 35-47zm105 13v-30l-22-3-22-3-38 36-38 36 60-3 60-3v-30zm405 14c-6-11-18-23-26-26l-15-5-21 18-21 19 7-30 7-30-30 35-30 35-1-14c0-8 7-23 17-33l16-18h-51l-31 26c-17 14-31 30-31 35v9h221l-11-21zm50-34v-45h-58l-5 14-6 15 27 30c15 17 30 30 35 31h7v-45zm-290-8v-33l12-12c7-7 21-12 32-12h19l-6-6-6-7 11-20 11-20-19-14c-10-7-26-13-36-13s-27-9-38-20l-20-20h-57l-18 20-18 20h-23c-13 0-26 5-29 11l-7 10 6 33 6 33 36 41 36 42h108v-33zm83-22c12-2 36-6 52-8l30-4-72-2-73-1v64l20-22c11-12 31-24 43-27zm122-5 6-10h-10c-5 0-13 5-16 10l-6 10h10c5 0 13-4 16-10zm28-281c-4-4-19-10-33-11l-24-3-7 38-6 37 31 8 31 9 9-35 8-34-9-9zm67 63v-19l-19-17-18-17-7 23c-3 13-6 29-6 36v12h50v-18zm-146-53 6-37-31-4-31-5-8 21c-4 12-10 31-14 43l-7 22 33 3c41 4 44 2 52-43zm-92-8c11-40 8-44-24-36l-25 6-11 35-10 35 31-3 31-3 8-34zm-229 423-6-16 14-9c20-13 34-6 37 19l3 22h-42l-6-16zm769-96c-11-13-25-35-31-50l-10-27 9-6 10-6 4 13c2 7 7 21 10 31l6 18 11-6 10-7-3-31-3-30 11-4 11-4 6 23 6 22-14 29-14 29 19 5c25 7 26 23 2 23h-19l-21-22zM960 731c0-5 9-13 20-16l20-6v-49h20v57l-25 11c-31 14-35 15-35 3z"/></g><g fill="#696969" transform="matrix(.1 0 0 -.1 0 189)"><path d="m668 1740-47-8-62-34-63-33-67-68c-37-37-81-88-98-113l-30-46-7-43-6-43 16-55 16-56 49-53 48-53-29-39-28-39v-57h-68l-11-14-12-15-1-39c0-47 7-62 30-61l17 1-18 5-17 4v99h75l37-46c42-52 46-64 21-64h-18l-30 45c-16 24-34 45-38 45h-8l7-12c4-7 16-25 26-40 23-34 23-36-9-41l-28-4 73-2 73-1-2-47-3-47-17-15-18-15 22-21c34-34 61-45 126-51l60-7 10-29 10-29-9-25c-6-14-10-27-10-29s18-21 40-42l40-38 6-32 7-33h-15c-47 0-401-259-444-325l-16-25 6-25 6-25h740c407 0 740 3 740 6 0 4-20 37-45 74l-46 68-56 52c-71 65-302 207-363 223l-23 6 7 68c8 93 66 273 87 273 4 0 20 21 35 46l27 45 3 52 4 52 29 97c17 54 33 124 37 156l6 58-11 75-12 74-29 62-28 62-42 45-42 45-61 31-60 30H935l-60 25-60 25-50-1c-27-1-71-5-97-9zm-3-296c55-1 106-2 112-3 7 0 19-14 28-31l15-29v-49c0-27-5-63-11-80l-11-31-51-3-52-3-3-19-4-19 14-8 13-9 19 6 19 6-7-10-6-11 11-6 11-7-31-19-30-18-16-30c-8-17-15-43-15-59 0-37-2-39-45-34l-37 4 6 23 6 22-10 33-10 33-27 29-28 29 39-3 39-3 4 11 4 12-16 16-16 16h-44c-24 0-54-4-67-9l-24-9 7 72 7 71 18 45c10 25 24 55 32 68l15 23 21-7c12-4 66-9 121-10zm320-155 7-10-12-30-13-30 7-6 6-6 20 18 20 18 4-14c3-8 7-40 11-71l6-57 41-34 40-34-7-31c-8-37-4-37-90-17-36 9-70 13-74 11l-9-6-6 42-7 41-33 33-34 34h-48l-49 1 42 15 43 15 29-16c38-19 47-19 55 0l6 15-20 20-19 19 22 46 22 45h17c9 0 20-5 23-11zm-438-182 23-20 6-33 6-32-7-21-6-20-20-6-20-7-13 11-14 12-66 6-66 6v14c0 23 26 77 46 95 37 32 93 30 131-5zm331-3c25-17 42-52 42-90v-24h-19c-11 0-26 3-34 6l-15 5 5 20 5 19-17 6-17 7-8-14-9-13 11-13 10-13h-38c-22 0-56-3-76-6l-38-7v18c0 9 7 32 16 51l17 35 36 19 36 20 35-6c19-3 45-12 58-20zm456-133 17-19 1-40v-39l-18-38-17-37-31-13-30-13-15 6c-9 3-26 14-38 25l-23 20v-12c0-6 12-23 26-36l26-25-15-107c-9-60-19-133-22-163l-6-55 30-17c38-21 39-32 4-64l-26-24-81-27-81-27H930l-105-1-50 28c-28 15-57 37-64 48l-12 21 19 22 20 21-5 33-5 33-39 31-39 31v32h195l57 27 58 27 11 25 12 25-6 16c-4 8-14 18-23 22l-17 6-106-21-106-22h-66c-77 0-166 15-186 32l-14 11 8 8c4 4 24 8 43 8 59-1 128 1 163 3 17 1 63-2 101-7l69-8-5 14-4 14-57 14-56 13 14 22 15 22-16 20-15 19 6-23 7-23-12-14c-7-8-21-15-32-15s-31-9-45-20l-26-20h-56l-18 19-18 19-25 4-25 3 1 38 1 38 31 42 30 42 61 3 61 3v-70l19-11 20-10h250l11 19c5 11 10 36 10 56v35l23-5c12-3 40-9 62-13l40-8 3-47 3-47h67l18 51 19 51 24 19 24 19h64l17-19zm-831-13 6-22-11-13-10-13h-47l-13 15c-7 9-22 25-32 35l-20 20h122l5-22zm407 13c0-5-12-19-27-31l-27-21-12 15c-16 23-27 20-14-4l11-20h-10c-6 0-18 11-27 25s-20 25-25 25h-9l16-25 16-25h-63l-24 25c-14 13-25 29-25 35v10h220v-9zm40-40v-49l-22-5-22-6-18 16-17 15 32 39c18 21 35 39 40 39h7v-49zm-170-39 50-5v-19l-69 4c-39 2-72 6-75 9-4 3-8 20-10 38l-4 32 29-27 28-27 51-5zm-315-3c11-17-1-21-15-4l-12 15h10c6 0 14-5 17-11zm406-5 13-16-18 3c-11 2-21 10-24 17l-4 12h10c5 0 16-7 23-16zm79-194 18-10-5-20c-3-11-13-25-23-30l-17-9-7 6c-8 8-8 58 1 66 8 9 11 9 33-3zm-56-22c3-13 6-33 6-45v-21l-31-7c-17-4-32-5-34-3-2 1-5 21-7 42l-3 40 25 7c14 4 28 7 31 8 4 1 9-9 13-21zm-80-39c4-23 5-43 4-44-2-2-17-6-34-9l-32-7-6 28c-4 15-9 36-12 45l-5 17 28 4c15 2 33 5 39 6l11 1 7-41zm-107 23c6-4 14-24 18-45l7-37h-53l-15 35c-7 19-14 39-14 45v10h23c12 0 27-4 34-8zm-210 384c-7-18 1-26 25-26h18v40h-38l-5-14zm787-86c-27-11-54-48-54-75l1-20 15 28 15 28 9-6 10-6v-70l10 6c13 8 13 51 0 75l-10 19 17 10c24 13 14 21-13 11zM970 731c0-6 7-14 15-17l15-6v-48h21l-3 26-3 27-22 15-23 14v-11z"/></g><g fill="#303030" transform="matrix(.1 0 0 -.1 0 189)"><path d="m668 1740-47-8-62-34-63-33-67-68c-37-37-81-88-98-113l-30-46-7-43-6-43 16-55 16-56 49-53 48-53-29-39-28-39v-50l-17-13-18-14 16 6 16 5 21-33c11-18 30-45 42-60l22-28h-50l-21 34c-12 19-29 40-38 47l-18 14 33-45 33-45-33-6-33-6 73-2 72-1 1-27 1-28 8 32c4 18 19 48 33 67 14 18 24 36 21 38-2 3 27 6 64 7l69 2 7-39 6-40 16-6c8-3 68-6 132-6h117l14 9 13 9 5 46 6 46h11c6-1 35-7 65-14l54-12 1-45 1-44 23-3 23-4 13 11c8 7 16 25 20 42l6 30 29 30 29 29h34c45 0 57-10 74-61l14-44-3 34-4 34 33 101 33 101 6 61 7 60-11 75-12 74-29 62-28 62-42 45-42 45-62 31-61 31-112-2-112-1-48 23-48 23-60 2c-33 2-81-1-107-6zm10-295h104l14-20c8-11 19-37 25-59l11-40-14-50-13-51-47-3-46-3-12-14-12-14 7-11c3-5 17-10 31-10h25l-6-10-6-10h22c12 0 38 5 59 11l37 11 31-16c40-21 42-20 42 8v25l-18 5-19 6 25 50 25 50h38l6-16 6-15-12-26c-15-33-7-41 19-18 11 10 22 16 24 14 6-6 14-58 15-98l1-33 40-37 40-36v-56l-15-5-15-6-52 12c-28 7-65 13-81 12l-29-1 6 14c2 7 0 29-5 49l-10 35-26 21c-14 11-33 20-42 19h-16l20-8c40-17 76-76 67-113l-3-18-32-1-32-2 28-4c33-5 34-13 2-43l-25-23-22 19-23 19 14-18 14-17-7-7-6-7-32 30-33 29 18-21c9-11 17-25 17-31v-11l-36 8c-39 9-74 36-74 56v13l28 4 27 4-32 2-33 1v15c0 25 25 79 44 94 9 8 38 20 64 27l47 13h-28c-34 1-74-19-106-52l-23-26-5-45-6-46h-82v122l-34 30-35 31 42-7 42-6v49l-36 7-37 7-41-10-41-9 6 75 7 76 16 40c10 22 24 51 32 63l16 24 26-8c15-5 73-9 130-9zm-132-339 34-34v-78l-12-12c-7-7-22-12-35-12h-23v18l-34 4-35 4 5-8c3-4 16-8 29-8h25l6-24 6-25-7-10-6-11h-56l-32 31-33 31 6 14 5 14h-22l6 37 6 36 27 28 27 28 26 4c14 2 32 5 40 6l13 1 34-34zm412-157c2-14-2-37-7-52l-11-27h-37l-17 18-16 19 32 36c37 40 52 42 56 6zm-260-19 17-21 40-9 40-9 31 5 31 5 13-16 12-15h-14c-8 0-19 5-26 12l-12 12v-24H701l-15 16-16 15v25c0 29 7 30 28 4zm-220-42c-2-6-9-13-15-15l-11-4-5 16-6 15h41l-4-12zm349 156c-4-4-7-13-7-21v-13h41l-3 17c-3 18-20 27-31 17zm-330-8c-7-18 1-26 25-26h19l-3 17-3 18-16 3-16 3-6-15zm-201-48 5-8 10 5c13 9 11 12-6 12h-14l5-9zm-25-24 1-19 5 13c3 7 2 16-1 19-3 4-6-2-5-13zm1003-22c-18-12-44-56-43-72l1-15 10 28 10 27h27l6-19c3-10 3-26-1-35l-6-16h24l-4 33c-3 17-8 39-12 49l-7 16 18 5 18 5-15 1c-8 0-20-3-26-7zM273 896l2-19 15-4 15-5-11 9c-6 4-14 15-17 23l-7 15 3-19zm1069-50-13-35-26-21-26-20h-48l-24 26-25 27v-11c0-6 14-21 30-34l31-22-5-13c-3-7-12-66-21-130-8-65-17-133-19-151l-5-32 8 4c4 3 11 37 15 75l6 70 31 88 32 88 23 23c28 26 57 79 52 93-2 6-9-6-16-25zm-617-29v-32l-30-3-30-4-18-19-18-19-22-1c-39-2-52 2-69 22l-16 19h-50l-5 13-5 12-1-22-1-22-20-11-20-11 30-29c30-29 75-48 87-36 4 3-2 6-13 6-21 0-64 26-64 39 0 5 14 11 31 15l31 6 43-11 43-11 27 14 27 15 85-15 84-14 7 6 6 7-14 9c-8 6-31 12-50 16-19 3-41 8-49 10l-14 5 11 11c13 13 16 54 4 61l-7 5v-31zm263-103 23-16-6-19-6-19h21v49l-19 11c-30 16-38 12-13-6zm-163-25-80-18-100-2-100-2 43-4 43-4 10-27c10-25 9-39-5-73l-7-15 46-46 45-46v-52h-13c-46 0-400-260-443-325l-16-25 6-25 6-25h740c407 0 740 3 740 6 0 4-20 37-45 74l-46 68-54 51c-50 45-162 121-180 121-4 0-24 14-45 30-45 35-117 70-145 69h-20l23-9 22-9v-41l-45-29-46-29-78-21-77-21H845l-63 30-62 29-12 27-12 26 20 17 20 16-7 34-7 34-43 36-42 37 10 18 10 19 7-12 7-11h115l59 15c32 9 74 25 92 36l33 21 6 24 6 24-12 15-12 15-27-1c-14 0-62-9-106-20zm135-4 12-15-16-25c-9-14-23-25-30-25h-14l-4 35c-2 20-2 38 1 40 10 10 39 4 51-10zm-59-38 6-39-24-9c-13-5-30-9-38-9h-14l-4 23-4 22-2-26-1-27-22-6c-13-3-28-6-35-6h-12l-11 41c-6 23-9 43-7 45 3 3 20 7 40 11l35 5 5-18 5-19 1 22 1 22 23 4c12 2 29 4 37 3l15-1 6-38zm-174-32 10-45h-63l-12 33c-7 18-12 39-12 45v12h67l10-45z"/></g><g fill="#060606" transform="matrix(.1 0 0 -.1 0 189)"><path d="M739 1740c37-9 56-25 65-57l7-22-40-21c-22-11-45-20-51-20h-10v32l-35 35-34 34 12 4c7 2 19 6 27 8l15 5-26 1-26 1-72-36c-39-19-71-39-71-44v-9l43 24 42 25h56l23-25c13-14 27-38 31-52l6-26-33-33-34-33-35 47-34 47-38 12-38 13-24-16c-27-18-133-142-155-182l-14-27v-121l23-46 22-47 40-36 40-36-27-35c-15-19-25-37-22-39 3-3 10 6 17 19 17 32 51 48 99 50l40 1-5 9-6 9 41-6 42-5v38l-27 11-28 11-40-7c-21-3-45-11-53-17l-14-12 2 19c1 11 1 31 0 45l-2 25-7-30-7-30-14 25-15 25v160l15 30 15 30 38 3c20 2 37 1 37-3 0-3-11-27-24-53s-27-63-31-82c-3-19-9-43-11-52l-5-18h21v25c0 32 25 106 51 150l20 34 27-11 27-12h104l104-1 20-26 19-27 5-43 5-44-14-40-13-40-30-3c-16-1-40-5-52-7l-23-5v-40h48l4-11 4-12 52 14 53 13 28-17c37-22 41-21 41 3v20l-19 12-18 11 25 49 25 48h22c12 0 24-3 28-6l6-7-14-34c-20-47-19-48 11-28 14 9 28 14 31 11 3-2 8-33 12-67l8-63 36-31 37-32v-35c0-19-3-37-6-40s-33 1-67 8c-63 15-164 21-174 10-4-3 3-6 15-6 29 0 28-11-3-40l-25-23-22 19c-13 10-17 12-10 4 17-19 15-30-5-30h-16l18-20 17-19-73-4-74-3 119-2c66-1 117 1 113 4-3 3-22 6-41 6h-35l-11 13-11 13 11 7 11 7 16-14 17-13-7 11-7 12 33 36c19 20 39 36 45 36h12l2-37 1-38 4 33 4 32h12c6 0 36-5 68-12l57-12-2-45-1-46h60l13 40 13 40 26 28 27 27h76l19-19 20-20 19 52c30 80 52 158 51 181l-1 21-5-20c-3-11-19-62-35-113l-31-93-24 17-25 16-37-6c-20-4-46-8-59-9l-23-2-5-25c-3-14-11-43-18-65l-13-40-15-3-15-3-6 14c-3 8-1 32 4 53 4 22 9 58 9 82v42l-21 18c-42 34-48 43-54 80-3 20-9 54-14 75l-9 38 15 47 14 47-6 45c-16 105-89 171-188 169l-42-1 59-13 58-13 27-19c14-11 34-34 44-51l18-31 6-53 5-53-15-35-16-35 6 32 5 32-17 56-18 57-32 33-33 33-55 16-55 16H702l-23-21-24-21 20 7c11 4 35 12 54 17l34 10 36-7c20-4 46-13 59-22l24-15 24-51 24-52v-30c0-16-5-47-11-67l-10-38-34-33-34-33-35-11-34-10 30 41 29 42 5 55 6 54-14 39-13 39-25 18-25 17-63-10-63-11-11 11-11 11 22 35c29 46 74 84 136 112l50 24h96l37-16c81-33 118-90 176-274 21-63 52-146 71-185l33-70 26-24 26-24 6 6 7 6-33 38c-42 47-77 125-125 276l-37 117-38 59-38 58-44 22c-24 11-51 21-59 21s-21 5-29 11l-15 11 63-6 62-6 38-19c87-44 122-101 191-302 49-145 84-219 103-219 11 0 12-2-25 68-16 30-48 113-72 187l-43 133-25 39c-34 53-90 99-152 123l-50 19h68l68 1 48-25 48-24 28-33c37-44 52-82 86-216 27-110 49-162 69-162h9l-19 33-19 32-25 107c-32 135-45 165-93 219l-38 43 34-20c72-41 145-148 176-257l15-52-5 45-5 45-31 63-31 63-48 50-47 49-57 26-57 26-113-3-114-3-14 12c-8 6-34 19-58 27l-43 15-51-1-51-1 34-8zm142-31 24-12-34-14c-18-8-34-13-35-11s-10 15-19 30-17 29-17 32c0 7 53-9 81-25zm-310-121c34-38 44-67 35-104l-7-26-22 7c-12 4-42 12-68 18l-45 10-25-6-24-6-20-33-19-33-1-80v-80l27-47 27-48h-13c-20 0-63 51-85 100l-21 45v120l23 40 22 39 34 23 34 23h70l34-21c44-27 54-18 13 11l-32 23-44 5-45 5 22 23 22 24h78l30-32zm372-128 34-40 11-39c7-21 12-46 12-55v-16h-47l-6 51-6 51-25 44c-31 55-18 57 27 4zm-163-259c0-5-7-12-16-15-23-9-54-7-54 3 0 12 18 19 48 20l22 1v-9zm124-17c17-6 22-24 8-24-5 0-17 7-28 15l-19 14 12 1c6 0 18-3 27-6zm-319-14 6-10H459l6 10 6 10h108l6-10zm848 95v-60l4 33c2 18 2 45 0 60l-4 27v-60zm-640-132c9-2 23-2 30 0l12 5h-60l18-5zm-236-30 17-26 7-46 6-46 2 40 1 40-20 33c-11 17-22 32-25 32s2-12 12-27zm157-7c-19-19-34-40-34-47v-14l20 32 19 32 28 15 28 15-13 1c-8 0-29-15-48-34zm150 19c16-9 35-23 43-33l14-17-11 22c-11 24-39 43-62 43h-13l29-15zm57-71 1-19 5 13c3 7 2 16-1 19-3 4-6-2-5-13zm-560-22c-1-39 11-64 52-112l31-35-23-3-22-4-16 14-17 13 7-12 7-12-32-4-33-4 73-1 72-2 1-22 1-23 7 26c5 14 14 35 20 47l12 22h-67l-28 32-28 32-8 41-8 40-1-33zm117-134c-3-7-11-13-18-13s-15 6-17 13l-5 12h44l-4-12zm29 156c-4-4-7-14-7-21v-14l18 3 17 3v14c0 16-18 25-28 15zm320 0c-4-4-7-13-7-21v-13h41l-3 17c-3 18-20 27-31 17zm-156-42-1-34-52 2c-29 2-65 2-80 1l-28-1v-51l10 6c6 4 8 10 6 14l-5 8 69 2 68 2 5-23 4-23 2 23c1 28 4 28 37-3l27-25 26 1 26 2-27 4-27 4-27 32-27 32 29 6 29 7-27 1-27 1-4 23-4 22-2-33zm-208-19c9-2 23-2 30 0l12 5h-60l18-5zm322-43c10-11 20-20 23-20s-3 9-13 20-20 20-23 20 3-9 13-20zm491 1-6-9 20 5c23 6 26 13 6 13-8 0-17-4-20-9zm86-31v-25l5 13c2 6 2 18 0 25l-5 12v-25zm-122-11c-6-11-10-25-8-30s8 4 15 21c13 34 9 40-7 9zm-970-3c0-8 4-17 9-20l9-6-5 20c-6 23-13 26-13 6zm1018-31-5-25h17v25c0 14-2 25-4 25s-6-11-8-25zm53-20-12-34-26-21-26-20h-48l5-8c3-5-2-50-10-101s-13-98-10-105l4-11 1 20c1 11 15 57 31 103l29 84 35 38c18 21 37 48 41 60 11 36 0 32-14-5zm-71-92c-1-5-8-19-16-33l-15-25 5 18c3 10 6 25 6 33s5 14 10 14c6 0 10-3 10-7zm-545 62v-33l8 5c4 2 7 15 7 28s-3 26-7 28l-8 5v-33zm465-19c0-2 8-10 18-17l17-14-14 18c-13 16-21 21-21 13zm-685-41c60-29 76-32 44-6-13 10-40 21-59 25l-35 6 50-25zm147 5-12-19 23 8c12 4 28 6 35 4l12-5v32h-45l-13-20zm-202-9c0-5 7-11 14-14l15-6-6 15c-6 15-23 19-23 5zm539-37 23-16-5-19-5-19 9 6c21 13-5 64-34 64h-11l23-16zm-539-1v-12l30-16c16-8 35-15 42-15 7 1-3 8-22 16s-38 20-42 27l-8 12v-12zm461-7c2-2 18-6 34-10l30-7-15 11c-14 9-59 15-49 6zm-51-10c0-2 9-6 20-9l20-5v9c0 5-9 9-20 9s-20-2-20-4zm-60-16-25-8 17-1 17-1 4-17 5-18 1 22 1 22 18 4 17 5h-15c-8 0-26-4-40-8zm-212-17 43-4 11-30c6-17 12-28 14-26 3 2 0 16-5 31l-11 26h79l4-17 5-18 1 17 1 17 18 4c9 3-32 4-93 4H545l43-4zm314-13v-25l5 13c2 6 2 18 0 25l-5 12v-25zm53-10c-3-5-29-21-58-35-29-13-46-25-39-25 19 0 86 36 101 54 8 9 11 16 8 16s-9-4-12-10zm-133-30v-25l5 13c2 6 2 18 0 25l-5 12v-25zm-91-6 1-19 5 13c3 7 2 16-1 19-3 4-6-2-5-13zm-87-26-7-11 11 7 11 6 6-10 6-10h112l-6 7c-4 3-29 5-57 4l-50-1v10c0 14-17 13-26-2zm174-5c7-3 16-2 19 1 4 3-2 6-13 5l-19-1 13-5zm-135-78c15-18 32-45 37-61l8-29 1 23 1 23-37 37-38 38 28-31zm520-5v-45l4 23c2 12 2 32 0 45l-4 22v-45zm30-80 17-11v-36l-22-20c-24-21-103-54-178-74l-45-12-80-1h-80l-50 22c-83 38-113 78-82 111l12 14-22-5c-53-13-302-188-390-273l-63-63V43c0-10 5-24 12-31l12-12h733c403 0 733 2 733 5 0 20-83 130-139 185l-67 65-71 38c-40 21-86 49-102 63-29 24-73 45-121 58l-25 7 18-11z"/></g></g></svg>