<?xml version="1.0"?><svg version="1.2" baseProfile="tiny-ps" viewBox="0 0 189 189" xmlns="http://www.w3.org/2000/svg" xmlns:xlink="http://www.w3.org/1999/xlink"><title>bybaro.it</title><g><g fill="#ffffff" transform="matrix(.1 0 0 -.1 0 189)"><path d="M0 945V0h1890v1890H0V945z"/></g><g fill="#fad61d" transform="matrix(.1 0 0 -.1 0 189)"><path d="M670 1843c-14-2-59-21-100-40l-75-36-82-85-83-85-20-42-20-41v-110l17-49 16-49 42-40 41-41-23-34c-12-18-25-48-29-67l-6-34h-76l-6-16c-3-9-6-35-6-59v-43l16-13 16-13h81l82-1-3-48-4-47-19-11-20-10 28-28c40-39 60-48 130-56l62-7 10-29 10-29-10-5c-5-4-9-16-9-29v-22l39-38 39-38 4-23 5-23-36-16c-20-8-47-24-61-34-14-11-72-50-129-88l-105-69-73-71-73-71v-39l36-42 36-42-6-15-5-15h1482l-6 29c-4 16-25 62-49 102l-43 74-75 75-75 76-73 37c-41 20-89 50-108 66l-33 30-56 17-56 18 7 60 6 61 35 107 35 107 18 6 19 6 20 43 21 42v87l36 111 36 111 5 70 5 70-16 65c-9 35-29 89-44 120l-26 55-56 56-55 56-60 22-60 23-105-3-105-3-45 23-45 24-70 3c-38 1-81 0-95-3zm-133-639 21-13 12-36 12-36-7-26-6-25-32 6c-18 4-59 9-92 13l-60 6-7 10-6 10 9 25c5 13 19 37 32 52l22 27h40l40 1 22-14zm332-9 29-14 11-32c6-18 11-38 11-45v-14h-72l10 13 11 13-8 13-8 13-19-4-19-4 1-21v-21l-63-4-63-3v57l34 34 34 34h83l28-15zm-484-168c38-54 40-57 23-57h-15l-33 47-34 47-4-12c-2-6 6-25 17-41 28-39 27-43-16-39l-38 3-3 33c-2 19-1 40 2 48l5 14h33l33-1 30-42zm99 37 16-6v-46l-18-4c-26-7-48 4-72 35l-21 27h39c22 0 47-3 56-6zm409-19c-21-28-35-31-53-10l-12 15-10-6-10-6 11-11c6-6 11-16 11-21 0-6-13 5-30 24l-29 35-1-14c0-8 8-23 18-34l17-20-34 7c-38 7-57 20-72 48l-10 18h222l-18-25zm0-346c-5-4-18-10-30-13l-22-7-7 25c-3 13-4 32-2 42l3 18 25 6 25 6 8-35 7-35-7-7zm67 63v-19l-19-17-18-17-7 23c-3 13-6 29-6 36v12h50v-18zm-150-29c0-10 3-28 6-40l6-23h-70l-6 23c-3 12-6 30-6 40v17h70v-17zm-97 0c2-5 7-20 11-35l6-28h-55l-11 35-11 35h28c15 0 30-3 32-7zm-213 402-12-15 6-15c6-18 27-20 44-3l11 11-10 19c-12 22-23 23-39 3z"/></g><g fill="#b7ae89" transform="matrix(.1 0 0 -.1 0 189)"><path d="M670 1843c-14-2-59-21-100-40l-75-36-82-85-83-85-20-42-20-41v-110l17-49 16-49 42-40 41-41-23-34c-12-18-25-48-29-67l-6-34h-76l-6-16c-3-9-6-35-6-59v-43l16-13 16-13h81l82-1-3-48-4-47-19-11-20-10 28-28c40-39 60-48 130-56l62-7 10-29 10-29-10-5c-5-4-9-16-9-29v-22l39-38 39-38 4-23 5-23-36-16c-20-8-47-24-61-34-14-11-72-50-129-88l-105-69-73-71-73-71v-39l36-42 36-42-6-15-5-15h26l9 32 10 33 17 3 17 4 36-36 36-36h1331l-6 29c-4 16-25 62-49 102l-43 74-75 75-75 76-73 37c-41 20-89 50-108 66l-33 30-56 17-56 18 7 60 6 61 35 107 35 107 18 6 19 6 20 43 21 42v87l36 111 36 111 5 70 5 70-16 65c-9 35-29 89-44 120l-26 55-56 56-55 56-60 22-60 23-105-3-105-3-45 23-45 24-70 3c-38 1-81 0-95-3zm-68-313 56-11 38 9c22 4 49 6 62 4l23-4 20-31 19-32v-41c0-23-5-55-11-73l-11-31h-28c-16 0-41-5-55-10l-26-10 3-22 3-23 20-4c11-2 23-8 26-13l7-11-33-29-33-29-13-50-13-50-25 3-26 3-7 40c-3 22-14 57-22 78l-16 37h41l5 15 6 15-12 15-12 14-66 3-67 3-3 33-3 34 20 66c20 67 47 112 67 112 6 0 35-5 66-10zm375-166 6-17-11-18c-18-28-15-32 23-25l35 7v-103l45-46c47-47 49-51 39-76l-6-16h-67l-6 10-6 10h-86l-7 41-7 42-30 28-31 29h-38v22l28-5c15-3 37-8 49-12l23-7 6 16 6 17-17 19-18 20 18 40 18 40h14c7 0 16-7 20-16zm-440-160 21-13 12-36 12-36-7-26-6-25-32 6c-18 4-59 9-92 13l-60 6-7 10-6 10 9 25c5 13 19 37 32 52l22 27h40l40 1 22-14zm332-9 29-14 11-32c6-18 11-38 11-45v-14h-72l10 13 11 13-8 13-8 13-19-4-19-4 1-21v-21l-63-4-63-3v57l34 34 34 34h83l28-15zm462-136 21-21-5-51-4-51-12-4c-6-2-11-10-11-17 0-8-10-21-22-29l-22-16h-56l-12 20c-15 23-28 26-28 6 0-8 11-24 25-35l26-19-15-94c-8-51-18-123-21-161l-7-67 26-21c31-24 32-33 8-59s-95-55-187-75l-78-18-63 6-63 6-51 26-51 26-11 24-11 25 16 18c10 10 17 28 17 39v20l-27 36c-16 20-34 36-40 37-7 0-13 5-13 10v25l83 1 82 2 58 22 58 22 18 20c11 11 21 30 23 43l5 23-9 16-9 16 16-6 15-6v-48h20v49l-22 16-23 15-11-15-11-15h-34c-19 0-59-7-89-16l-55-15-128 1H518l-19 11-19 10v31l75-7 75-7 14 11 14 12 43-10c24-6 65-11 92-11h47v10c0 11-29 25-72 34l-26 6 3 42 3 43 19-3c10-1 42-4 71-6l53-3 5 8c3 5 16 9 28 9h24l10 13c6 6 12 28 14 47l3 35 36-1c19-1 48-4 63-8l28-7-5-32-5-32 10-17 9-18h47l9 13c5 6 17 32 26 57l17 45 27 17c16 10 38 18 51 18h22l21-21zm-946-32c38-54 40-57 23-57h-15l-33 47-34 47-4-12c-2-6 6-25 17-41 28-39 27-43-16-39l-38 3-3 33c-2 19-1 40 2 48l5 14h33l33-1 30-42zm99 37 16-6v-46l-18-4c-26-7-48 4-72 35l-21 27h39c22 0 47-3 56-6zm409-19c-21-28-35-31-53-10l-12 15-10-6-10-6 11-11c6-6 11-16 11-21 0-6-13 5-30 24l-29 35-1-14c0-8 8-23 18-34l17-20-34 7c-38 7-57 20-72 48l-10 18h222l-18-25zm57-30v-45h-58l-5 13-5 14 25 31c13 18 29 32 34 32h9v-45zm-292-10c5-37 19-55 43-55 11 0 18-3 17-7 0-5 3-17 7-27l8-19-18-13c-10-8-28-14-40-14h-21l-17-20-17-20h-57l-18 20-18 20h-47v85l39 43 40 43 48-3 48-3 3-30zm107-25c19 0 35-3 35-7v-8l-42 2c-24 1-51 2-60 2l-18 1v63l25-27 24-26h36zm128-281c-5-4-18-10-30-13l-22-7-7 25c-3 13-4 32-2 42l3 18 25 6 25 6 8-35 7-35-7-7zm67 63v-19l-19-17-18-17-7 23c-3 13-6 29-6 36v12h50v-18zm-150-29c0-10 3-28 6-40l6-23h-70l-6 23c-3 12-6 30-6 40v17h70v-17zm-97 0c2-5 7-20 11-35l6-28h-55l-11 35-11 35h28c15 0 30-3 32-7zm-213 402-12-15 6-15c6-18 27-20 44-3l11 11-10 19c-12 22-23 23-39 3zm759-114-29-29 1-29 1-28 11 28 11 27h26v-70h10c17 0 15 66-3 88l-10 13 21 6 22 5-6 9c-9 16-25 10-55-20z"/></g><g fill="#837131" transform="matrix(.1 0 0 -.1 0 189)"><path d="M661 1835c-30-9-80-29-112-46l-58-31-82-86-81-85-19-41-19-41v-94l21-55 20-55 44-38 43-39-29-32-29-32v-69l-42-3-41-3-10-28-9-28 6-33 6-34 23-6c12-3 54-6 93-6h71l-5-52-5-53-16-12-16-11 25-22c34-28 83-50 117-50 15 0 38-3 51-7l24-6 8-23 9-22-12-32-12-32 42-36 43-37 6-32 7-33h-19c-11 0-29-6-41-13-56-32-254-171-301-211-55-47-122-122-122-136 0-4 16-27 35-50l35-42V19c0-34 16-20 28 26l12 45 50-37c28-20 50-41 50-45V0h1330v13c-1 22-38 95-79 154-78 112-149 177-251 228-30 15-69 40-86 55l-32 28-48 17c-27 9-55 19-63 21l-14 4 7 68 7 67 30 93 31 94 28 25 29 25 15 39 16 39v86l36 105 36 104v190l-21 59c-28 80-60 132-112 185l-44 44-55 26-55 26-120 1-120 1-41 21-40 21-60 5-59 6-54-15zm-55-306 52-10 43 10 44 10 24-12 25-12 13-25 13-25v-100l-13-24-12-24-45-3c-50-5-63-14-58-40l4-19 22 1 22 1v-14c0-7 5-13 11-13 7 0-3-10-22-23l-34-23-14-28c-7-16-14-41-15-57l-1-27-37-4-38-4 6 32 6 32-21 46-20 46h-22l5 9 6 8 25-4 25-5 7 17 6 18-19 14-19 15-61-4-60-4-3 35c-3 48 17 126 46 184l24 49 17-7c9-3 40-11 68-16zm373-148 14-9-17-32c-9-18-16-35-16-37 0-8 37-2 48 9l11 11 5-14c2-8 7-36 9-63l5-49 42-40 41-40-6-26c-4-14-7-27-8-27-1-1-39 5-84 14l-83 16v19c0 10-7 34-16 53l-17 35-28 14-28 15h-38l-38 1 39 14 39 14 30-15 29-15 14 5c20 8 17 33-6 49l-20 14 26 47c27 48 31 51 53 37zm-421-201 22-33v-56l-15-14-15-15-46 14c-26 8-67 14-91 14h-43v14c0 27 21 71 44 93l23 21 29 4c16 2 38 1 49-3l20-6 23-33zm327 7 26-22 6-42 5-42-28 3c-16 2-32 4-35 5-3 0-4 12-1 26l4 25h-15c-8 0-20-7-28-16l-13-16 15-9 14-9h-40c-22 0-57-3-77-6l-38-7v17c0 9 9 34 19 55l20 37 23 11c13 7 44 12 70 12l47 1 26-23zm445-127 20-20v-41c0-44-11-72-43-106l-20-23h-67l-12 20c-15 23-28 26-28 6 0-8 11-23 25-34l25-20-14-99c-8-54-18-127-21-163l-7-65 31-18c17-10 31-22 31-27 0-31-95-78-207-104l-72-16H855l-61 29-61 29-17 23-16 23 20 21 20 22-6 32-7 32-38 33-39 33v31l39-9 40-9 82 15 83 14 41 28 40 29 3 28 4 29-14 8c-21 14-71 10-165-12l-88-21-98 6-98 6-31 16-30 15 7 7c4 4 43 8 88 9s93 3 107 4 60-1 104-6l79-8-5 14-5 14-50 15-50 15 10 23 11 24-11 16-10 17 103 1 103 1 15 13 16 12v89l20-5c21-6 35-10 84-21l28-6-5-34-6-35 15-14 14-15 22 4c28 6 31 10 52 68l18 47 26 15c15 8 37 14 50 15h22l20-20zm-937-39c42-55 44-61 20-61h-18l-30 45c-16 24-34 45-38 45h-8l7-12c4-7 16-26 27-41 10-16 17-31 14-34s-24-2-46 2l-41 7v98h76l37-49zm105 17-3-33-22-3-22-3-37 35-38 36h125l-3-32zm412 23c0-5-12-19-27-31l-27-21-12 15c-16 23-27 20-14-4l11-20h-10c-6 0-18 11-27 25s-20 25-25 25h-9l17-27 17-26-39 6-40 6-17 22c-10 12-18 25-18 30v9h220v-9zm40-46v-45h-58l-6 17-7 16 28 29c15 15 30 28 35 28h8v-45zm-290-8v-33l12-12c7-7 20-12 30-12s17-3 16-7c0-5 3-17 7-27l8-19-18-13c-10-8-27-14-37-14s-27-9-38-20l-20-20h-59l-18 19-18 19-25 4-25 3-3 18c-6 32 6 61 43 105l37 42h108v-33zm74-17c15-5 40-10 56-10s31-4 34-8l5-8-57 2c-31 2-65 3-74 3l-18 1v33l1 32 13-17c7-10 25-22 40-28zm-259-10c-3-5-12-10-18-10h-12l15 10c19 12 23 12 15 0zm390-1c11-17-1-21-15-4l-12 15h10c6 0 14-5 17-11zm96-212c-1-4-1-13-1-20s-9-18-20-25l-20-12-6 25c-3 14-4 32 0 40l5 15 21-8c12-4 21-11 21-15zm-69 1c3-7 4-26 4-43l-1-29-27-10c-34-12-35-11-40 38l-3 40 25 7c36 10 37 10 42-3zm-78-49c4-23 5-43 4-44-2-2-17-6-34-9l-32-7-6 28c-4 15-9 36-12 45l-5 17 28 4c15 2 33 5 39 6l11 1 7-41zm-108 22 12-1 7-36c8-43 5-47-28-39l-26 7-10 30c-13 35-8 48 17 43 9-2 22-4 28-4zm-209 385c-7-18 1-26 25-26h18v40h-38l-5-14zm762-105-29-29 1-29 1-28 14 33 14 33 10-6 10-6v-69h10c17 0 15 66-3 88l-10 13 21 6 22 5-6 9c-9 16-25 10-55-20zM966 821l-6-10 20-6 20-6v-49h21l-3 26-3 27-22 14-21 14-6-10z"/></g><g fill="#34201d" transform="matrix(.1 0 0 -.1 0 189)"><path d="M608 1816c-83-35-136-75-216-164l-72-80-15-42c-19-55-19-96 2-161l17-53 36-36c19-21 42-39 50-42l15-5-28-31-29-30-5-41-6-41h-67v-21l37 3 37 2 3-11c3-7 18-28 34-49 34-43 36-54 10-54h-19l-29 45c-15 25-32 45-36 45h-8l7-12c4-7 19-28 32-45l24-33h-35c-19 0-42 3-51 6l-16 6v52l-1 51-10-18-10-17 5-32 5-33 17-12 18-13h154l-3-51-3-52-16-9c-19-11-21-28-3-28 7 0 18-9 24-19l12-20 38-10c21-6 57-11 79-11h42l12-31 13-31-11-19c-19-30-15-41 28-79l40-35 6-31 6-31-30-6c-17-3-39-15-49-25s-40-31-68-47c-27-16-90-59-140-95l-90-67-52-57c-29-32-53-61-53-65s16-26 35-48l35-41 1-24V-5l10 20c5 11 13 33 19 48l10 28 19-11c11-5 36-26 57-45l37-35h1317v11c0 6-19 48-42 92l-42 82-86 85-85 86-65 34c-36 18-81 46-100 61-36 29-109 60-139 58h-16l23-9 22-9v-40l-30-21c-16-12-62-33-102-47l-73-26-97-5-96-5-66 31-66 31-12 25-11 26 20 17 19 18-7 35-7 35-42 35-41 35 7 18 6 18 14-12 15-12 84 6 84 6 58 28 58 28 9 28 10 27-17 17-17 17-112-22-113-22H555l-36 10c-34 10-67 35-58 44 2 2 19 6 37 9l33 5 31-10 30-11 38 12 37 11 82-11c77-10 103-8 88 7-8 8-101 35-142 41l-30 5-19-21-19-21h-77l-12 20-13 20h-55v61l16 32c9 18 26 42 37 55l20 22h117v-59l16-15 15-16h244l14 9 13 9 5 46c3 25 8 46 12 46 3-1 33-6 65-13l59-13 1-44 1-45 23-3 23-4 13 11c7 6 18 29 25 50l11 40 27 20 26 21h28c15 0 34-3 43-6l15-6 11-34 12-34-17-50-17-50-28-20c-15-11-38-20-50-20h-21l-24 26-25 27v-11c0-13 40-52 53-52h9l-5-14c-5-13-30-184-40-273l-5-43h15l6 74 7 74 31 87 32 88 34 36 33 36 11 37c5 21 9 52 8 70l-2 33 33 95 34 95 4 100 4 100-22 64c-40 121-123 221-219 265l-46 21-120 1-120 1-45 21-45 22-80-1h-80l-57-23zm71-281 103-1 14-19c8-11 19-36 24-57l11-37-7-28c-3-15-10-40-16-55l-10-28h-86l-12-15-12-14 7-11c3-5 17-10 31-10h25l-6-10-6-10h22c12 0 38 5 59 11l37 11 31-16c40-21 42-20 42 5v22l-16 11-16 12 23 47 23 47h37l6-16 6-15-12-26c-15-32-7-41 17-20 10 10 21 17 24 17s9-30 13-67l7-66 39-35 39-35v-58l-14-5c-7-3-42 2-76 10-35 8-69 12-75 10l-12-5-7 40-6 39-25 31-26 30-45 7-44 6-29-12c-16-6-41-24-56-40l-27-28-5-46-6-46h-82l3 55 4 55-36 36-37 37 41-6 40-5v46l-22 6c-33 8-83 7-110-3l-24-9 7 78 7 78 28 62 28 62 30-8c17-4 78-8 135-9zm-132-340 34-34-3-42-3-42-17-11-17-10-23 12c-25 13-65 20-117 21l-34 1 6 37 6 36 27 28 27 28 26 4c14 2 32 5 40 6l13 1 35-35zm346-15 27-30v-70h-27c-16 0-35 5-43 10l-15 10h25v14c0 8-5 18-10 21l-11 7-15-12-14-13 11-13c6-8 10-14 8-15-2 0-37-2-78-5l-74-5 7 33c9 45 33 77 69 94l32 14 40-5 40-5 28-30zm-388-137 6-26-13-8c-7-5-23-9-35-9h-22l-13 16c-7 8-21 23-31 32l-17 17 15 5c8 3 35 4 59 2l44-4 7-25zm405 18c0-4-12-18-26-32l-26-24-12 18c-7 9-17 17-21 17s-2-7 5-15l13-15-7-8-8-7-24 29c-14 15-27 26-30 24-2-3 2-11 11-18 8-7 15-18 15-25v-13l-37 9-38 8-17 22c-10 11-18 25-18 30v8l58 3c75 4 162-2 162-11zm50-18c0-16-3-38-6-50l-6-22-20-7-20-6-20 19-19 19 33 37c18 20 39 36 46 36l12 1v-27zm-180-58 50-7v-18H701l-15 16-16 15v51l30-25 29-25 51-7zm-300-4c0-6-4-12-9-15l-9-6-12 15-12 15h42v-9zm391-7 13-16-18 3c-11 2-21 10-24 17l-4 12h10c5 0 16-7 23-16zm89-199 12-15-16-26-17-25-12 4-12 4-3 36-3 37h19c11 0 25-7 32-15zm-66-11c3-9 6-28 6-44v-28l-31-7c-17-4-32-5-34-3-1 1-6 22-10 45l-6 41 23 5c42 8 46 7 52-9zm-79-45c8-47 8-47-32-55l-31-6-11 38c-6 22-11 42-11 46 0 6 27 14 62 17l16 1 7-41zm-89-16 13-43h-58l-16 30c-8 16-15 36-15 45v16l32-3 32-3 12-42zm-229 423c-7-18 1-26 25-26h18v40h-38l-5-14zm775-93c-15-6-42-56-41-75 0-7 5-1 11 15l10 27h27l6-19c3-10 3-26-1-35l-6-16h24l-4 33c-3 17-8 39-12 49l-7 16 18 5 18 5h-15c-8 0-21-2-28-5zM724 905v-34l8 5c10 6 11 51 1 57l-8 5-1-33zm246-80c0-3 9-14 20-25l20-20-7-16-6-17 11 7c7 4 12 15 12 25v19l-25 16c-14 9-25 14-25 11z"/></g><g fill="#0a0405" transform="matrix(.1 0 0 -.1 0 189)"><path d="M630 1820c-30-11-56-20-57-20-2 0-3-4-3-8v-8l33 4 33 4 26-26 26-26 5-26 4-25-33-33-33-33-23 35c-27 42-62 67-102 77l-30 6-68-73c-78-83-106-129-114-192l-6-43 11-7 11-7v45c0 61 13 91 60 137l39 39h86l33-20c39-24 49-25 32-4-21 24-51 38-100 44l-45 5 24 24 23 23 43-5 44-4 26-28c14-16 28-39 31-52l6-23-10-29-10-29 21-6c33-9 70-7 87 4l15 10-47-6-47-7 3 14c6 30 26 65 48 85 95 84 177 110 271 83l38-10 39-38 39-38 22-49c12-27 38-101 59-164 41-125 85-222 120-258l21-22 10 6 10 6-24 23c-37 38-72 111-117 245-22 69-48 139-56 157-8 17-14 34-14 37 0 9-17 29-57 70-31 32-50 42-123 65l-35 11 62-4 63-4 44-21c92-45 126-97 190-291 51-153 80-216 103-225l15-5-4 7c-2 5-15 31-29 58-15 28-43 100-62 160-46 146-68 192-112 243l-37 43-49 24-48 25h-56l15 11 15 10-36-6-36-7-6 15-5 14-31 11-31 11v-8c0-5 14-11 30-14l30-6v-20l-32-9-33-9-4 11c-2 6-10 19-19 29l-15 17h34l-6 10-6 10-52-1-52-1 32-9 32-9 16-22c8-13 15-28 15-35v-12l-50-25-50-25v38l-35 37c-19 20-35 38-35 40s10 4 23 4c12 0 29 5 37 10l15 10-15-1c-8 0-40-9-70-19zm360-29v-11h121l42-21c23-12 56-36 74-54l31-32 21-49c11-27 27-83 36-124 28-125 54-184 73-165l6 6-11 7-12 7-35 138c-36 139-50 170-94 219l-24 26 6 10 6 10-41 16-41 17-79 6-79 6v-12zm-450-11c-8-5-12-11-9-14 2-3 11-1 19 4s12 11 9 14c-2 3-11 1-19-4zm-40-30c0-5 5-10 10-10 6 0 10 5 10 10 0 6-4 10-10 10-5 0-10-4-10-10zm790-55c18-19 36-32 39-30 6 7-50 65-63 65-5 0 5-16 24-35zm-432-42c12-2 20-7 18-11l-4-7 40-1h40l34-38 34-38 11-38 12-38-8-49-8-48-11 57-11 57-31 44-31 43-60 22-60 22H702l-23-20c-28-23-15-26 21-5l25 14 37 1c46 0 82-13 112-42l24-23 16-48c9-26 16-63 16-82v-35h54l-18 13-17 13-8 54-7 55-18 28-18 27h9c5 0 23-16 40-35l31-35 10-47c6-27 10-64 9-83l-2-35-12-13c-7-7-13-19-13-25v-12l8 11c4 6 17 14 28 18l22 7 6-23c3-13 6-40 6-60v-38h19l-6 46c-3 26-9 58-12 73l-7 26 13 45 13 45-6 45-6 45-24 42-25 43-31 16-30 16-52 3c-28 1-41 1-28-2zm482-18c7-9 15-13 17-11 7 7-7 26-19 26h-10l12-15zm45-73c8-15 22-57 31-92l16-65-5-65-4-65-33-108-33-107-23 21-23 21-38-6c-21-4-48-8-60-9l-22-2-10-40c-4-22-12-48-16-57l-7-18h20l7 28c7 31 31 63 59 79l19 10 36-8 35-8 12-16 12-16 20 53c10 29 28 78 38 108l19 55-1 110v110l-23 58c-12 31-26 57-31 57h-8l13-28zm-957 11-16-4-18-37-18-37v-75l1-75 26-60c14-32 24-62 21-66l-4-7 38 9c56 13 62 12 95-23l30-33-12 22c-6 12-21 29-32 37l-21 14 23 5 24 4-54 2-53 1 6 16 6 17-16-14-16-13 2 19c1 11 2 25 1 30l-1 10-9-14-9-14-12 24-13 23-5 67c-5 77 0 107 25 136l18 20 28 5 27 5v-16l30 1c17 1 30 4 30 8 0 16-79 25-122 13zm298-21-6-10 38-4c57-8 61 7 5 18l-31 6-6-10zm-253-49c-7-15-11-28-9-31 6-6 28 38 24 48-2 5-9-3-15-17zm352-37c2-21 7-41 10-44 9-10 5 53-5 68l-10 15 5-39zm-525-71c0-15 34-85 41-85 5 0 9-6 9-13 0-12 21-34 50-52 8-5-4 13-28 41l-42 50-6 32c-4 18-10 32-15 32s-9-2-9-5zm531-2c0-6-4-20-7-30l-7-18 12 11 13 12-5 18c-3 11-5 14-6 7zm-389-23v-25l5 13c2 6 2 18 0 25l-5 12v-25zm472-16c-9-24-73-84-90-84-7 0-15-4-19-9l-5-10 35 6 35 6 26-18c14-9 28-14 31-11s-6 11-21 17c-14 7-26 16-26 21 0 11 7 10 33-3l22-10-22 19-21 19 20 32c11 17 18 35 14 38-3 3-9-3-12-13zm-146-41c-21-2-38-8-38-12v-8l28 5 27 5-13-16c-8-9-23-18-35-20l-22-4 23-2 23-1-5-8-5-8 19-1 19-2-6 15-5 14h9c6 0 15 11 21 25s8 24 4 23-24-3-44-5zm-273-32-5-10 30 1c17 1 33 5 36 10l5 8h-30c-16 0-32-4-36-9zm75-35c0-2 7-7 16-10l15-6-6 10c-6 10-25 14-25 6zm223-23c9-2 23-2 30 0l12 5h-60l18-5zm-71-30c-15-16-19-21-7-12 11 9 29 21 40 27l20 11-12 1c-7 0-25-12-41-27zm-338-8c-9-14-15-28-12-30 2-2 12 9 22 25 21 36 13 40-10 5zm493 14c7-7 15-10 18-7s-2 9-12 12l-18 7 12-12zm34-39c14-31 19-36 19-24 0 6-7 19-16 30l-15 19 12-25zm-328-45v-40l4 23c2 12 2 30 0 40l-5 17 1-40zm-223-1c0-16 5-36 10-44l9-15-6 40c-7 49-13 58-13 19zm147 20c-4-4-7-14-7-21v-14l18 3 17 3v14c0 16-18 25-28 15zm320 0c-4-4-7-13-7-21v-13h41l-3 17c-3 18-20 27-31 17zm291-36-3-43-20 1c-11 0-38 6-60 12-22 7-50 12-63 12h-23l5-9 6-9 25 3 25 2v-7c0-4 6-7 13-7 6 1 29-3 50-7l39-9-6-26-6-26 11 18c12 20 26 137 16 137-3 0-7-19-9-42zm-445-8 2-36-53 6c-30 4-67 4-83 2l-29-4v-49l10 6c6 4 8 10 6 14l-5 7 32 3c18 1 47 4 65 5l34 3 5-13 5-13 13 12 12 13-8 40-8 39 2-35zm247-8v-9l-27 3-28 4 30-10 30-9 8 8 9 9-11 6-11 7v-9zm-457-9c9-2 25-2 35 0l17 5h-70l18-5zm235 0c6-2 18-2 25 0l12 5h-50l13-5zm-427-19 1-19 5 13c3 7 2 16-1 19-3 4-6-2-5-13zm119-25c7-11 14-18 17-15 8 8-5 36-17 36h-11l11-21zm504 8c-3-8-13-18-21-21l-16-6-21 17-21 18 14-18 14-17-7-7-6-6-22 19-22 19 27-37 27-37-32-4-33-4 44-1 44-2-16 18-17 19 6 6 7 6 20-10 19-11-7 11-7 12 24 18 23 19-7 8-8 7-6-16zm68-7v-25l5 13c2 6 2 18 0 25l-5 12v-25zm-271-3c2-1 13-9 24-17l20-15-14 18c-7 9-18 17-24 17s-8-1-6-3zm671-27v-25l5 13c2 6 2 18 0 25l-5 12v-25zm-942 5c0-12 24-55 32-55 4 0 8-8 9-17v-18l9 20c13 29 12 33-7 31l-18-1 1 17 2 17-14 5c-8 3-14 3-14 1zm40-9c0-2 7-6 15-10l15-5v9c0 6-7 10-15 10s-15-2-15-4zm288-3c6-2 18-2 25 0l12 5h-50l13-5zm-478-12c0-6 4-13 10-16l10-6-6 15c-7 18-14 21-14 7zm103-8 7-12-32-4-33-4h60l60-1-20 5c-11 3-26 10-34 17l-15 11 7-12zm915-16-6-29 10 10 10 10-4 18-4 19-6-28zm58-11c-3-13-18-38-32-55l-26-31h-48v-14c0-8-3-22-7-32l-6-17 11 7c7 4 12 16 12 27v19h10c6 0 10-5 10-11 0-5 18 10 39 35 38 44 58 82 48 92-2 3-7-6-11-20zm-598 7c7-3 16-2 19 1 4 3-2 6-13 5l-19-1 13-5zm380-10c7-3 16-2 19 1 4 3-2 6-13 5l-19-1 13-5zm-664-88 5-15-11 3c-6 1-13-4-15-10l-5-13h10c6 0 17 7 26 15 19 20 27 19 20-2l-6-18 12 18 12 18 14-12 14-11v10c0 11-19 19-60 27l-22 4 6-14zm203 8c-4-3-7-10-7-14v-7l23 5 22 5-15-11-15-11h12c6 0 18 3 27 6l15 6-14 14c-14 15-37 18-48 7zm593-51c0-6-8-19-19-29l-19-18-6-65-5-65 9 36c5 20 18 60 30 89 11 29 18 55 15 58s-5 0-5-6zm-810-12c0-9 59-44 65-38 1 2-13 13-31 25l-34 22v-9zm488-11 32-10 1-17 1-17 5 14 6 14-19 14c-10 7-27 13-38 12l-21-1 33-9zm-70-6c6-2 18-2 25 0l12 5h-50l13-5zm-68-13-25-8 17-1c9-1 19-7 21-13l5-13 1 17 1 17 18 4 17 5h-15c-8 0-26-4-40-8zm-248-16c3-3 42-5 87-5h81v-24l8 11c4 6 14 14 22 17l15 5-109 1c-60 1-107-2-104-5zm350-14v-25l5 13c2 6 2 18 0 25l-5 12v-25zm-2-41c-30-16-49-29-42-29 17 0 89 37 97 50 8 12 11 14-55-21zm-82-9-5-30h24l-5 30c-2 17-5 30-7 30s-5-13-7-30zm-87 4 1-19 5 13c3 7 2 16-1 19-3 4-6-2-5-13zm-84-15c-3-11-3-18 0-15 4 3 13 0 21-7l15-12-13 25c-17 34-17 34-23 9zm93-20c0-5 9-9 20-9s20 2 20 4-9 6-20 9l-20 5v-9zm-42-6c6-2 18-2 25 0l12 5h-50l13-5zm-38-47c0-2 8-10 18-17l17-14-14 18c-13 16-21 21-21 13zm542-26v-35l5 18c2 9 2 25 0 35l-5 17v-35zm-480-60v-25l5 13c2 6 2 18 0 25l-5 12v-25zm511-21 17-10v-36l-24-22-23-22-69-24c-38-13-103-29-143-36l-73-11-47 8c-57 9-49 7-96 30-22 10-48 27-59 36l-19 17 6 31c4 16 4 30 1 30-13 0-204-123-204-131 0-5-5-9-11-9-33 0-249-191-249-220 0-5 6-13 13-17s20-20 30-35l17-28h32l5 20 5 20h12c6 0 34-20 63-45l51-45h656c361 0 656 3 656 6 0 15-44 104-51 104-5 0-9 5-9 11 0 19-63 103-119 160l-56 55-60 35c-33 19-72 40-87 48s-37 23-48 33c-21 20-103 58-123 58l-12-1 18-10z"/></g></g></svg>
